<svg width="42" height="42" viewBox="0 0 42 42" fill="none" xmlns="http://www.w3.org/2000/svg">
<g clip-path="url(#clip0_9_11)">
<path d="M29.7544 8.60052C29.7211 8.45739 29.7008 8.31156 29.6939 8.16479C29.6705 7.62472 29.6053 2.47287 29.6937 2.3094C29.7181 2.26422 29.7423 2.25618 29.7868 2.24133C30.2923 2.31225 32.7444 3.86051 33.1527 4.24244L33.1523 4.27136C33.1429 4.90448 32.7311 5.74343 32.5713 6.37401C32.4735 6.7599 32.2321 7.01223 32.5541 7.34956L34.4783 9.3605C34.5169 9.40096 34.5622 9.4593 34.6229 9.45038C35.5462 9.31413 36.5279 8.79352 37.4583 8.68427C37.9991 9.15353 38.8051 10.6575 39.1631 11.3233C39.231 11.4495 39.3422 11.735 39.4158 11.8935C39.5274 12.1338 39.7128 12.4204 39.7402 12.6802C39.7521 12.7943 39.6566 12.8934 39.5885 12.9696C39.3003 13.2918 37.7249 14.5255 37.6128 14.8319C37.6595 15.2611 37.8552 15.6482 37.9446 16.0468C38.0785 16.6446 38.2571 17.3002 38.3738 17.8971C38.6347 17.9655 38.8984 18.0112 39.1603 18.0736C39.4824 18.1503 39.8013 18.2404 40.1245 18.313C40.4506 18.3863 40.8062 18.4303 41.1179 18.5486C41.1725 18.5693 41.2078 18.5834 41.2381 18.6359C41.4465 18.9944 41.4512 21.2393 41.4329 21.6999C41.4225 21.9606 41.3817 22.2171 41.3632 22.4768C41.3482 22.6876 41.3698 22.9503 41.3095 23.1521C41.2898 23.2181 41.2674 23.2489 41.2059 23.2805C41.0367 23.3672 40.8005 23.3918 40.6143 23.4388C40.135 23.5596 39.6572 23.688 39.1746 23.7954C38.9027 23.8561 38.6031 23.8867 38.3391 23.9708C38.3 24.6204 38.0969 25.2699 37.9499 25.9262C37.8997 26.1179 37.5178 27.113 37.6583 27.244C37.953 27.5188 38.3127 27.8035 38.6 28.09C38.9043 28.3931 39.5224 28.8077 39.7345 29.158C39.56 29.9549 38.5684 31.6518 38.1039 32.3968C37.9667 32.6166 37.7491 33.0211 37.5445 33.1734C37.4436 33.2452 37.2512 33.1913 37.1394 33.1619C36.588 33.017 36.0441 32.834 35.5004 32.6642C35.2913 32.599 34.789 32.3861 34.5967 32.4036C34.4952 32.4659 34.4195 32.5826 34.343 32.6739C33.8869 33.2171 33.415 33.7587 32.891 34.2378C32.7069 34.4062 32.5116 34.5399 32.3353 34.721C32.4846 35.3475 32.6952 35.9738 32.8863 36.5894C32.9833 36.9018 33.1205 37.2496 33.1537 37.576C33.1597 37.6331 33.1539 37.6677 33.123 37.7171C32.8752 38.1117 30.0843 39.7968 29.6375 39.9205C29.3672 40.0602 29.2899 40.158 29.0512 39.9293C28.438 39.328 27.954 38.6117 27.364 37.9878C27.1819 37.7953 27.0281 37.9034 26.808 37.9727C26.5951 38.0397 26.3886 38.1154 26.1737 38.1782C25.8685 38.267 25.5613 38.3482 25.2523 38.422C25.0449 38.4712 24.052 38.6468 23.9525 38.7181C23.893 38.9472 23.8781 39.1759 23.8241 39.4099C23.641 40.2037 23.5021 41.0279 23.3161 41.8185C23.0032 41.845 22.6878 41.8905 22.3746 41.9067C21.8865 41.9321 18.9749 41.9811 18.7426 41.7527C18.685 41.6961 18.6524 41.5804 18.6301 41.5037C18.5446 41.2088 18.4963 40.8948 18.4305 40.5942C18.3169 40.0745 18.187 39.5413 18.1085 39.0153C18.0925 38.9082 18.0874 38.8008 18.0846 38.6927C17.2038 38.5479 16.3367 38.3293 15.4924 38.0393C15.2841 37.9671 15.0163 37.8794 14.8225 37.7817C14.1611 38.4925 13.6092 39.2483 12.9288 39.9558C12.719 40.1526 12.6055 40.0454 12.3831 39.9232C11.7408 39.6693 9.23451 38.1509 8.80682 37.6374C8.86745 37.4583 8.89509 37.3158 8.94714 37.1415L9.27676 36.0589C9.41689 35.5968 9.5545 35.2201 9.68425 34.74C9.49898 34.5477 9.30276 34.3934 9.09978 34.2212C8.80363 33.9693 8.56254 33.6668 8.30451 33.3789C8.16249 33.2204 8.00889 33.0701 7.86525 32.9118C7.71575 32.7467 7.57322 32.5274 7.40953 32.3806C6.66468 32.686 5.37298 33.0414 4.59333 33.2407C4.53542 33.2185 4.46469 33.1937 4.40989 33.1665C4.25862 32.9444 4.10172 32.7235 3.95982 32.4954C3.64591 31.9905 2.24588 29.643 2.33019 29.1473C2.36204 28.9601 3.33378 28.1566 3.52262 27.9868C3.68129 27.8441 3.8272 27.6874 3.98562 27.5447C4.10574 27.4368 4.38671 27.3039 4.42705 27.1454C4.46294 27.0045 4.2377 26.517 4.18949 26.355C3.97149 25.6218 3.69164 24.7189 3.66285 23.9574C2.98825 23.8434 2.32484 23.6685 1.66379 23.4939C1.43329 23.4328 0.917579 23.3391 0.739667 23.2376C0.63186 23.0649 0.655372 22.6896 0.63253 22.4776C0.524071 21.4709 0.53036 20.4758 0.633566 19.4718C0.738921 18.4468 0.560353 18.6492 1.59165 18.38C2.28989 18.1977 2.94313 18.0613 3.65397 17.931C3.71996 17.5134 3.79465 17.0827 3.90445 16.6739C4.06152 16.0892 4.22364 15.5087 4.41824 14.9355C4.44202 14.8655 4.40452 14.7899 4.36036 14.7366C3.87295 14.216 3.31266 13.7577 2.78723 13.2768C2.57048 13.0784 2.35765 12.9727 2.25456 12.6851C2.39906 12.2896 2.564 11.9019 2.74871 11.5236C3.04581 10.9137 4.09702 8.97524 4.59725 8.64853C5.03726 8.7886 5.51838 8.89794 5.96393 9.0529C6.44851 9.22141 6.90218 9.36704 7.39861 9.50149C7.67508 9.19826 8.01227 8.77551 8.28463 8.49866L9.1935 7.58815C9.31501 7.4673 9.45364 7.35303 9.56631 7.22481C9.61688 7.16727 9.6699 7.10579 9.67262 7.02546C9.67863 6.84858 9.49589 6.47125 9.42848 6.28426C9.30812 5.95025 9.21175 5.61013 9.10347 5.27243C9.01223 4.98788 8.8816 4.68209 8.84618 4.38458C8.83847 4.31984 8.8374 4.24892 8.88102 4.19628C9.13421 3.89067 11.9531 2.24921 12.2244 2.24392C12.2526 2.24336 12.2515 2.2401 12.2708 2.25938C12.302 2.29045 12.3122 2.32595 12.3174 2.36826C12.3566 2.68756 12.3382 3.03527 12.3389 3.35704L12.3407 5.1039L12.3434 7.1153C12.3442 7.45065 12.3772 8.20109 12.2814 8.54962C12.2682 8.59742 12.0457 8.79397 12.0026 8.83172C8.27852 11.8038 6.18632 16.2721 6.16388 21.0187C6.14501 24.6047 7.40645 28.0797 9.72125 30.8187C11.7729 33.2836 14.5648 35.0212 17.6824 35.7734C18.8034 36.0353 19.9339 36.1469 21.0828 36.1487C24.4974 36.1352 27.7981 34.9197 30.4059 32.7155C33.195 30.3704 35.0558 27.1076 35.6543 23.5134C35.7884 22.68 35.8327 21.8332 35.8355 20.9908C35.8372 17.2246 34.4808 13.5841 32.0151 10.7372C31.8156 10.5057 31.5943 10.2994 31.3872 10.0797C30.967 9.63397 30.532 9.22675 30.0392 8.8613C29.9391 8.78706 29.8343 8.69777 29.7544 8.60052Z" fill="#072943"/>
<path d="M29.0511 39.9293C29.2681 39.9351 29.4184 39.9377 29.6375 39.9205C29.3672 40.0602 29.2899 40.158 29.0511 39.9293Z" fill="#0C2134"/>
<path d="M12.3831 39.9232C12.5007 39.9332 12.8592 39.9404 12.9288 39.9558C12.719 40.1526 12.6055 40.0454 12.3831 39.9232Z" fill="#0C2134"/>
<path d="M15.5092 8.9636C15.5579 8.96028 15.6278 8.95702 15.6699 8.98185C16.0904 9.22989 16.5396 9.86998 16.9217 10.1431C17.506 10.1899 17.6281 10.6577 17.9706 11.0814C18.1262 11.2739 18.8372 12.1765 18.845 12.3535C18.7868 12.4587 18.3179 12.5368 18.1825 12.5846C10.3675 15.3396 10.2551 26.329 17.9427 29.3965C22.5647 31.241 27.6242 28.5805 29.2696 24.0056C30.1506 21.556 29.8114 18.5076 28.4695 16.2813C28.3602 16.0971 28.1884 15.949 28.1029 15.7441C28.2493 15.3843 28.5581 15.1283 28.7761 14.8415C29.1141 14.3969 29.3143 14.0406 29.7523 13.6641C30.1934 13.6036 30.6241 13.4428 31.0492 13.3122C31.192 13.2684 31.338 13.2109 31.485 13.1854C31.5474 13.1745 31.6015 13.1719 31.6587 13.2044C31.9311 13.3598 32.648 14.7727 32.7989 15.1229C32.8818 15.3151 32.9431 15.5099 33.0009 15.7106C32.6872 16.1546 32.1146 16.504 31.7442 16.9474C31.7518 17.3699 31.8798 17.6542 31.9776 18.057C32.0506 18.3585 32.1132 18.663 32.1882 18.9663C32.6509 19.1584 33.6588 19.2908 34.0253 19.4951C34.127 19.9923 34.222 21.8406 34.0651 22.236C34.0378 22.3045 34.0058 22.3513 33.9439 22.3915C33.6035 22.6119 32.6796 22.6607 32.2592 22.8432L32.2364 22.8535C32.1825 23.0297 32.1616 23.1316 32.1318 23.3135C32.0744 23.5057 32.0242 23.7692 31.9727 23.9728C31.9034 24.2468 31.769 24.6262 31.7459 24.8959C31.9317 25.1502 33.0083 26.071 33.0067 26.2549C33.004 26.5523 31.9793 28.461 31.7291 28.673C31.4922 28.8738 30.2796 28.2665 29.9104 28.2573C29.8501 28.2557 29.8206 28.2665 29.7734 28.3053C29.6174 28.4333 29.4898 28.6086 29.3485 28.7534C29.0177 29.0928 28.6822 29.432 28.3362 29.756C28.4179 29.9716 28.4714 30.2012 28.5495 30.4186C28.6867 30.8009 28.7966 31.1789 28.898 31.572C28.7893 31.718 28.6082 31.8451 28.4636 31.9586C27.7499 32.518 27.1548 32.8398 26.3226 33.1905C26.0427 32.9948 25.9739 32.8334 25.7518 32.5904C25.5002 32.315 25.2714 32.0463 25.0316 31.7609C24.5037 32.0055 23.4529 32.2934 22.8849 32.3242C22.8818 32.7811 22.689 33.6117 22.5973 34.091C22.5844 34.1523 22.5276 34.2294 22.4626 34.2435C21.6761 34.4162 20.1619 34.4435 19.44 34.1865C19.3251 33.9345 19.317 33.5811 19.2489 33.3108C19.1748 33.0168 19.1435 32.7026 19.0607 32.412C19.0476 32.3658 19.0087 32.3527 18.9637 32.3414C18.2929 32.1747 17.6128 32.0111 16.9688 31.7541C16.5949 32.1759 16.114 32.85 15.6906 33.1983C15.0538 32.9433 13.5807 32.073 13.1054 31.5855C13.2611 30.9557 13.4862 30.3745 13.6688 29.755C13.3713 29.4351 12.9882 29.127 12.6843 28.794C12.6181 28.7214 12.2861 28.3121 12.2432 28.2957C11.9513 28.1839 10.5085 28.8572 10.3117 28.6908C9.78834 28.0801 9.31627 27.067 8.9831 26.3503C8.87566 26.1192 10.0788 25.1619 10.2568 24.8879C10.2544 24.6639 9.98875 23.9285 9.93112 23.6385C9.89607 23.4622 9.80122 22.9985 9.75305 22.8416L9.74448 22.8143C9.46688 22.7592 8.05346 22.4784 7.98507 22.3283C7.74523 21.8019 7.87088 20.0457 7.97195 19.4965C8.26506 19.3118 9.32181 19.1632 9.73326 19.0112C9.88397 18.656 9.93087 18.167 10.0612 17.7922C10.1007 17.6489 10.3416 17.0709 10.2441 16.9515C9.91566 16.5494 9.25695 16.102 8.96362 15.6785C9.10502 15.1689 10.0477 13.3811 10.458 13.1684C10.8644 13.2104 11.8978 13.6986 12.1928 13.6325C12.3179 13.5439 12.4381 13.3878 12.543 13.2732C12.8456 12.9427 13.1805 12.6448 13.4974 12.3285C13.5895 12.2365 13.6368 12.1498 13.6075 12.0176C13.5687 11.8419 13.5042 11.6704 13.4477 11.4992C13.3708 11.2682 13.3006 11.035 13.237 10.8C13.2071 10.6931 13.1183 10.3949 13.2113 10.2892C13.4894 9.97308 13.9103 9.78607 14.2705 9.55884C14.6267 9.33413 15.0975 9.06971 15.5092 8.9636Z" fill="#072943"/>
<path d="M13.4819 1.6912C14.1031 1.63846 14.782 1.69203 15.4087 1.67655C15.5097 1.67405 15.6601 1.68693 15.7339 1.76082C15.9899 2.00923 16.177 2.33535 16.3901 2.62328L18.0926 4.9407C18.2277 5.12667 18.3836 5.29944 18.517 5.48611C19.2491 6.51014 20.0239 7.50221 20.7445 8.53519C20.7869 8.59614 20.9489 8.81895 21 8.857C21.0193 8.84656 21.832 7.69685 21.9226 7.56769C22.2877 7.04782 22.6847 6.54923 23.0629 6.0385C23.5298 5.4075 23.9816 4.7639 24.4509 4.1347C24.5999 3.93467 24.765 3.74594 24.9113 3.54395C25.1313 3.23962 26.0851 1.82542 26.2834 1.68708C26.8808 1.63739 27.8873 1.6835 28.5204 1.6768L28.5126 7.02989L28.5128 8.55639C28.5132 8.84178 28.5219 9.24545 28.4983 9.52709C28.0777 9.37804 27.6132 9.11911 27.1792 8.96556C26.9417 8.88154 26.5533 8.83343 26.3671 8.69693C26.2879 8.50207 26.3318 6.38476 26.3152 5.97479C26.2851 5.8516 26.2783 5.80396 26.2658 5.67894C26.266 5.48237 26.2601 5.26544 26.2855 5.07226C25.8977 5.53731 25.5531 6.08766 25.1813 6.57768C24.2173 7.84744 23.2977 9.15627 22.3308 10.4241C22.1472 10.6673 21.968 10.9137 21.793 11.1631C21.5761 11.4684 21.5205 11.6505 21.1025 11.7031C20.5031 11.7784 20.2953 11.2893 19.9845 10.8643L19.0821 9.64484L17.3468 7.28548C17.0898 6.94306 15.7584 5.25084 15.6795 4.98996C15.6791 5.12638 15.6682 5.25915 15.669 5.39616C15.6705 5.65946 15.7206 5.93268 15.7216 6.19488C15.7238 6.76754 15.7346 7.34621 15.7236 7.91829C15.7222 7.9874 15.7008 8.0574 15.6675 8.11716C15.3953 8.32209 14.8713 8.4775 14.5514 8.62581C14.3642 8.71262 13.6594 9.13496 13.51 9.0817C13.4656 8.94465 13.4837 7.80507 13.4837 7.56529L13.4797 4.18601C13.4744 3.57347 13.3351 2.20842 13.4819 1.6912Z" fill="#072943"/>
<path d="M29.8567 11.6862C30.0025 11.6937 30.1625 11.9027 30.0641 12.0387C29.6385 12.6252 29.1755 13.1912 28.7419 13.7739L24.9139 18.8252L23.8996 20.1762C23.4847 20.7315 23.3178 20.8025 23.3223 21.5082C23.3235 21.7118 23.0727 22.1935 22.9472 22.3634C22.5682 22.8763 22.0861 23.2581 21.4358 23.3424C20.6346 23.4525 20.1255 23.2819 19.4912 22.8221C19.3475 22.7073 19.2192 22.5746 19.1094 22.4269C18.1852 21.1833 18.7175 19.281 20.1915 18.7556C20.5248 18.6368 21.0377 18.5503 21.3876 18.6094C21.8041 18.2152 22.3258 17.802 22.7766 17.4368C24.8124 15.787 26.8127 14.094 28.8605 12.4594C29.18 12.2043 29.4786 11.8627 29.8567 11.6862ZM21.2143 21.8076C21.7315 21.6335 21.9282 21.1655 21.7483 20.6696C21.5564 20.1404 21.2293 20.1558 20.7716 20.1878C20.5359 20.2769 20.3657 20.4023 20.2642 20.6401C20.0866 21.0562 20.2272 21.6115 20.6834 21.7715C20.8614 21.8338 21.0314 21.8162 21.2143 21.8076Z" fill="#E56661"/>
<path d="M20.3043 0.109825C20.6688 0.0577004 22.9257 0.166226 23.2735 0.294918C23.3851 0.383339 23.9488 2.86353 23.8926 2.93888C23.1572 3.92606 22.4345 4.90406 21.7418 5.92318C21.4711 5.94231 20.5441 5.9362 20.3015 5.88942C20.1524 5.77068 19.8991 5.379 19.7677 5.20011L18.7511 3.81343C18.5642 3.55705 18.2332 3.16079 18.0902 2.91107C18.2412 2.45407 18.5129 0.633936 18.7398 0.350086C18.8917 0.159918 20.0166 0.156498 20.3043 0.109825Z" fill="#072943"/>
<path d="M24.7603 10.091C25.0538 10.0662 25.8811 10.4802 26.1719 10.6085C26.5644 10.7819 28.0715 11.6975 28.1962 12.0275C28.1724 12.2284 27.8334 12.3892 27.706 12.526C27.3492 12.9095 26.7777 13.2342 26.4405 13.6132L26.4157 13.6416C26.3577 13.6936 26.2676 13.7757 26.1891 13.7788C26.0199 13.7854 25.6534 13.5197 25.5049 13.4238C24.9738 13.0811 24.4293 12.8579 23.8475 12.6163C23.6568 12.5372 23.3485 12.4644 23.1646 12.3749C23.1449 12.3653 23.149 12.3164 23.1535 12.3053C23.2878 11.9739 24.564 10.2362 24.7603 10.091Z" fill="#E56661"/>
</g>
<defs>
<clipPath id="clip0_9_11">
<rect width="42" height="42" fill="white"/>
</clipPath>
</defs>
</svg>
